<?xml version="1.0" encoding="utf-8"?>
<!-- Generator: Adobe Illustrator 20.1.0, SVG Export Plug-In . SVG Version: 6.00 Build 0)  -->
<svg version="1.1" id="svg4472" xmlns:rdf="http://www.w3.org/1999/02/22-rdf-syntax-ns#" xmlns:svg="http://www.w3.org/2000/svg"
	 xmlns="http://www.w3.org/2000/svg" xmlns:xlink="http://www.w3.org/1999/xlink" x="0px" y="0px" 
	 viewBox="0 0 151.98 50" style="enable-background:new 0 0 151.98 50;" xml:space="preserve">
<style type="text/css">
	.st0{fill:url(#path4423_1_);}
	.st1{fill:url(#path4425_1_);}
	.st2{fill:url(#path4429_1_);}
	.st3{fill:url(#path4433_1_);}
	.st4{fill:url(#path4435_1_);}
	.st5{fill:url(#path4439_1_);}
</style>
<g id="layer1" transform="translate(4636.4128,-2865.2086)">
	
		<linearGradient id="path4423_1_" gradientUnits="userSpaceOnUse" x1="-9245.8613" y1="-19.728" x2="-9245.8613" y2="-46.6463" gradientTransform="matrix(1.3509 0 0 -1.3509 7877.4204 2838.4626)">
		<stop  offset="0" style="stop-color:#196EEF"/>
		<stop  offset="0.5" style="stop-color:#186DEE"/>
		<stop  offset="1" style="stop-color:#1065E7"/>
	</linearGradient>
	<path id="path4423" class="st0" d="M-4607.81,2889.51h6.28v8.81c-1.96,0.63-4.43,0.97-7,0.97c-10.42,0-16.54-8.92-16.54-17.63
		c0-8.54,5.54-14.54,13.26-14.54c4.89,0,7.73,1.66,10.28,3.96v2.88l4.77-4.77c-3.02-2.04-7.39-3.98-13.64-3.98
		c-13.71,0-19.98,9.81-19.98,17.87c0,11.48,8.36,18.39,18.86,18.39c5.09,0,9.62-0.78,14.84-2.23v-9.11c0-0.47,0.2-0.79,0.51-1.07
		l1.65-1.65h-11.19L-4607.81,2889.51z"/>
	
		<linearGradient id="path4425_1_" gradientUnits="userSpaceOnUse" x1="-9222.0811" y1="-28.88" x2="-9222.0811" y2="-46.2859" gradientTransform="matrix(1.3509 0 0 -1.3509 7877.4204 2838.4626)">
		<stop  offset="0" style="stop-color:#DE5744"/>
		<stop  offset="0.5" style="stop-color:#DB4632"/>
		<stop  offset="1" style="stop-color:#D13D29"/>
	</linearGradient>
	<path id="path4425" class="st1" d="M-4579.69,2877.53c-7.89,0-12.78,5.77-12.78,11.89c0,5.28,3.94,11.56,11.92,11.56
		c7.68,0,12.39-5.78,12.39-12.01C-4568.16,2883.16-4572.77,2877.53-4579.69,2877.53L-4579.69,2877.53z M-4581,2879.21
		c5.56,0,8.04,7.25,8.04,12.42c0,7.69-5.77,7.84-6.46,7.84c-2.64,0-4.49-1.6-5.87-3.69c-1.22-1.93-2.4-5.51-2.4-9.01
		c0-3.49,1.14-5.19,2.94-6.44C-4583.28,2879.39-4581.91,2879.21-4581,2879.21L-4581,2879.21z"/>
	
		<linearGradient id="path4429_1_" gradientUnits="userSpaceOnUse" x1="-9184.4863" y1="-28.88" x2="-9184.4863" y2="-56.8271" gradientTransform="matrix(1.3509 0 0 -1.3509 7877.4204 2838.4626)">
		<stop  offset="0" style="stop-color:#1A6FEF"/>
		<stop  offset="0.25" style="stop-color:#1E72EF"/>
		<stop  offset="0.5" style="stop-color:#166BEC"/>
		<stop  offset="0.75" style="stop-color:#1267E9"/>
		<stop  offset="1" style="stop-color:#1063E5;stop-opacity:0.87"/>
	</linearGradient>
	<path id="path4429" class="st2" d="M-4528.09,2877.52c-6.89,0-10.62,4.36-10.62,9.24c0,3.71,2.66,7.9,8.14,7.9h1.39
		c0,0-0.38,0.92-0.38,1.8c0,1.31,0.47,2.04,1.47,3.17c-9.43,0.57-13.23,4.38-13.23,8.47c0,3.58,3.43,7.11,10.64,7.11
		c8.53,0,12.95-4.74,12.95-9.39c0-3.28-1.63-5.07-5.77-8.17c-1.22-0.95-1.45-1.55-1.45-2.25c0-1.01,0.61-1.68,0.83-1.94
		c0.39-0.41,1.07-0.88,1.32-1.11c1.39-1.18,3.35-2.92,3.35-6.4c0-2.38-0.99-4.44-3.25-6.36h2.76l2.07-2.07H-4528.09
		L-4528.09,2877.52z M-4530,2879.08c1.25,0,2.3,0.44,3.4,1.36c1.22,1.1,3.18,4.07,3.18,7.73c0,3.96-3.07,5.04-4.74,5.04
		c-0.81,0-1.79-0.23-2.62-0.79c-1.84-1.19-3.66-4.36-3.66-8.13C-4534.43,2880.89-4532.41,2879.08-4530,2879.08z M-4527.27,2901.14
		c0.53,0,0.9,0.04,0.9,0.04s1.24,0.89,2.11,1.55c2.02,1.6,3.28,2.82,3.28,4.99c0,2.99-2.77,5.33-7.26,5.33
		c-4.93,0-8.69-2.29-8.69-6.04C-4536.93,2903.9-4534.35,2901.24-4527.27,2901.14L-4527.27,2901.14z"/>
	
		<linearGradient id="path4433_1_" gradientUnits="userSpaceOnUse" x1="-9171.0801" y1="-20.2171" x2="-9171.0801" y2="-45.7968" gradientTransform="matrix(1.3509 0 0 -1.3509 7877.4204 2838.4626)">
		<stop  offset="0" style="stop-color:#0AA561"/>
		<stop  offset="0.5" style="stop-color:#009B58"/>
		<stop  offset="1" style="stop-color:#00914B"/>
	</linearGradient>
	<path id="path4433" class="st3" d="M-4516.38,2900.29h9.46l1.44-1.44l-2.71-0.34c-0.73-0.09-1.17-0.72-1.17-1.33v-28.59
		c0-0.56,0.26-0.85,0.45-1.03l1.71-1.71h-8.07l-2.1,2.1h3.14v29.61c0,0.42-0.13,0.71-0.42,1L-4516.38,2900.29z"/>
	
		<linearGradient id="path4435_1_" gradientUnits="userSpaceOnUse" x1="-9158.7109" y1="-28.88" x2="-9158.7109" y2="-46.2379" gradientTransform="matrix(1.3509 0 0 -1.3509 7877.4204 2838.4626)">
		<stop  offset="0" style="stop-color:#DE5644"/>
		<stop  offset="0.5" style="stop-color:#DA4531"/>
		<stop  offset="1" style="stop-color:#CE3A28"/>
	</linearGradient>
	<path id="path4435" class="st4" d="M-4494.1,2877.53c-5.28,0-10.9,4.03-10.9,11.26c0,5.97,4.03,12.19,11.55,12.19
		c1.88,0,3.42-0.24,4.87-0.91c1.55-0.72,3.05-1.88,4.14-3.34c-2.06,1.04-3.74,1.72-5.97,1.72c-4.24,0-8.33-3.06-9.76-8.68
		l14.98-6.05C-4486.05,2880.63-4488.49,2877.53-4494.1,2877.53L-4494.1,2877.53z M-4495.08,2879.18c2.83,0,4.88,2.33,4.88,4.16
		c0,0.59-0.37,0.9-1.1,1.19l-9.21,3.72c0,0-0.25-1.16-0.25-2.41C-4500.75,2880.59-4496.95,2879.18-4495.08,2879.18L-4495.08,2879.18
		z"/>
	
		<linearGradient id="path4439_1_" gradientUnits="userSpaceOnUse" x1="-9202.2539" y1="-28.9177" x2="-9202.2539" y2="-46.2514" gradientTransform="matrix(1.3509 0 0 -1.3509 7877.4204 2838.4626)">
		<stop  offset="0" style="stop-color:#FFC01A"/>
		<stop  offset="0.5" style="stop-color:#FFBA03"/>
		<stop  offset="1" style="stop-color:#FFB300"/>
	</linearGradient>
	<path id="path4439" class="st5" d="M-4552.91,2877.53c-7.89,0-12.78,5.77-12.78,11.89c0,5.28,3.94,11.56,11.92,11.56
		c7.68,0,12.39-5.78,12.39-12.01C-4541.38,2883.16-4545.98,2877.53-4552.91,2877.53L-4552.91,2877.53z M-4554.22,2879.21
		c5.56,0,8.04,7.25,8.04,12.42c0,7.69-5.77,7.84-6.46,7.84c-2.64,0-4.49-1.6-5.87-3.69c-1.22-1.93-2.4-5.51-2.4-9.01
		c0-3.49,1.14-5.19,2.94-6.44C-4556.5,2879.39-4555.12,2879.21-4554.22,2879.21L-4554.22,2879.21z"/>
</g>
</svg>
