<?xml version="1.0" encoding="UTF-8" standalone="no"?>
<!-- Generator: Adobe Illustrator 20.1.0, SVG Export Plug-In . SVG Version: 6.00 Build 0)  -->

<svg
   xmlns:dc="http://purl.org/dc/elements/1.1/"
   xmlns:cc="http://creativecommons.org/ns#"
   xmlns:rdf="http://www.w3.org/1999/02/22-rdf-syntax-ns#"
   xmlns:svg="http://www.w3.org/2000/svg"
   xmlns="http://www.w3.org/2000/svg"
   xmlns:sodipodi="http://sodipodi.sourceforge.net/DTD/sodipodi-0.dtd"
   xmlns:inkscape="http://www.inkscape.org/namespaces/inkscape"
   version="1.1"
   id="Слой_1"
   x="0px"
   y="0px"
   viewBox="0 0 203 50"
   xml:space="preserve"
   sodipodi:docname="Logo_MegaIndex.svg"
   width="203"
   height="50"
   inkscape:version="0.92.2 (5c3e80d, 2017-08-06)"><metadata
     id="metadata29"><rdf:RDF><cc:Work
         rdf:about=""><dc:format>image/svg+xml</dc:format><dc:type
           rdf:resource="http://purl.org/dc/dcmitype/StillImage" /><dc:title></dc:title></cc:Work></rdf:RDF></metadata><defs
     id="defs27" /><sodipodi:namedview
     pagecolor="#ffffff"
     bordercolor="#666666"
     borderopacity="1"
     objecttolerance="10"
     gridtolerance="10"
     guidetolerance="10"
     inkscape:pageopacity="0"
     inkscape:pageshadow="2"
     inkscape:window-width="1920"
     inkscape:window-height="1001"
     id="namedview25"
     showgrid="false"
     inkscape:zoom="2.173913"
     inkscape:cx="103.5"
     inkscape:cy="25"
     inkscape:window-x="-9"
     inkscape:window-y="-9"
     inkscape:window-maximized="1"
     inkscape:current-layer="Слой_1" /><style
     type="text/css"
     id="style2">
	.st0{fill:#C42D4A;}
	.st1{fill:#3F3F3F;}
</style><g
     id="g22"
     transform="matrix(1.1182057,0,0,1.1182057,-14.065423,-1.7234389)"><path
       class="st0"
       d="m 17.39,33.49 c 0,0.34 0.06,0.6 0.17,0.78 0.11,0.14 0.36,0.25 0.73,0.34 v 0.48 h -4.37 v -0.48 c 0.34,-0.08 0.59,-0.19 0.73,-0.34 0.11,-0.15 0.17,-0.41 0.17,-0.78 V 16.18 c 0,-0.39 -0.06,-0.66 -0.19,-0.8 -0.1,-0.14 -0.34,-0.27 -0.71,-0.38 v -0.42 h 6.41 V 15 c -0.28,0.08 -0.47,0.19 -0.57,0.33 -0.11,0.11 -0.17,0.27 -0.17,0.46 l 0.04,0.15 0.22,0.44 6.27,12.27 5.94,-12.27 0.17,-0.38 0.06,-0.21 c 0,-0.19 -0.05,-0.34 -0.15,-0.44 -0.1,-0.1 -0.3,-0.22 -0.59,-0.34 V 14.59 H 38.4 V 15 c -0.36,0.09 -0.59,0.21 -0.72,0.37 -0.12,0.16 -0.18,0.43 -0.18,0.81 v 17.31 c 0,0.34 0.06,0.6 0.17,0.78 0.11,0.14 0.36,0.25 0.73,0.34 v 0.48 h -5.1 v -0.48 c 0.34,-0.08 0.59,-0.19 0.73,-0.34 0.11,-0.15 0.17,-0.41 0.17,-0.78 V 17.5 L 25.99,34.39 17.38,17.94 v 15.55 z"
       id="path4"
       inkscape:connector-curvature="0"
       style="fill:#c42d4a" /><path
       class="st0"
       d="m 41.84,35.09 v -0.48 c 0.37,-0.08 0.61,-0.19 0.73,-0.34 0.11,-0.15 0.17,-0.41 0.17,-0.78 V 19.85 c 0,-0.36 -0.05,-0.6 -0.15,-0.74 -0.1,-0.14 -0.35,-0.27 -0.74,-0.38 v -0.48 h 13.72 c 0.34,0 0.59,-0.06 0.75,-0.18 0.16,-0.12 0.31,-0.37 0.47,-0.75 h 0.42 v 4.39 H 56.79 C 56.68,21.33 56.54,21.08 56.39,20.97 56.24,20.86 55.98,20.8 55.61,20.8 h -9.77 v 4.47 h 6.18 c 0.34,0 0.59,-0.06 0.74,-0.17 0.15,-0.11 0.31,-0.36 0.48,-0.73 h 0.42 V 28.7 H 53.24 C 53.11,28.33 52.98,28.09 52.83,27.97 52.68,27.86 52.43,27.8 52.06,27.8 h -6.22 v 4.73 h 10.4 c 0.34,0 0.6,-0.06 0.76,-0.18 0.17,-0.12 0.31,-0.36 0.44,-0.74 h 0.44 v 4.37 H 57.46 C 57.35,35.63 57.21,35.4 57.06,35.28 56.91,35.16 56.65,35.1 56.28,35.1 H 41.84 Z"
       id="path6"
       inkscape:connector-curvature="0"
       style="fill:#c42d4a" /><path
       class="st0"
       d="m 76.92,23.41 -0.42,-0.17 0.06,-0.11 0.02,-0.19 c 0,-0.55 -0.62,-1.09 -1.87,-1.64 -1.25,-0.55 -2.56,-0.82 -3.95,-0.82 -2.13,0 -3.82,0.57 -5.08,1.7 -1.26,1.13 -1.89,2.64 -1.89,4.52 0,1.84 0.64,3.34 1.91,4.48 1.27,1.14 2.95,1.72 5.02,1.72 0.85,0 1.7,-0.13 2.54,-0.38 0.84,-0.25 1.92,-0.71 3.24,-1.37 v -2.1 h -4.37 c -0.34,0 -0.6,0.06 -0.76,0.17 -0.17,0.11 -0.31,0.35 -0.42,0.71 h -0.42 v -4.41 h 0.42 c 0.09,0.36 0.21,0.59 0.35,0.72 0.15,0.12 0.4,0.18 0.77,0.18 h 7.79 v 0.48 c -0.36,0.09 -0.59,0.21 -0.72,0.35 -0.12,0.15 -0.18,0.4 -0.18,0.77 v 3.05 l 0.86,0.27 v 0.59 c -1.29,1.16 -2.71,2.03 -4.28,2.62 -1.57,0.59 -3.2,0.89 -4.89,0.89 -2.93,0 -5.31,-0.83 -7.17,-2.48 -1.85,-1.65 -2.78,-3.75 -2.78,-6.3 0,-2.55 0.92,-4.65 2.75,-6.31 1.83,-1.66 4.16,-2.49 6.98,-2.49 2.09,0 4.33,0.52 6.74,1.56 0.53,0.23 0.88,0.36 1.05,0.38 0.04,-0.01 0.07,-0.03 0.11,-0.04 0.03,-0.01 0.08,-0.04 0.14,-0.08 l 0.38,-0.31 0.38,0.19 z"
       id="path8"
       inkscape:connector-curvature="0"
       style="fill:#c42d4a" /><path
       class="st0"
       d="m 88.37,20.38 0.08,-0.17 c 0.09,-0.19 0.15,-0.35 0.19,-0.47 0.04,-0.12 0.06,-0.24 0.08,-0.35 0,-0.13 -0.04,-0.25 -0.12,-0.37 -0.08,-0.12 -0.21,-0.23 -0.39,-0.31 v -0.46 h 5.48 v 0.46 c -0.14,0.06 -0.26,0.15 -0.35,0.27 -0.1,0.11 -0.15,0.25 -0.16,0.42 0,0.15 0.1,0.45 0.31,0.9 l 0.06,0.11 5.78,12.35 c 0.24,0.52 0.5,0.92 0.78,1.19 0.28,0.27 0.62,0.5 1.01,0.68 v 0.48 h -5.04 v -0.48 c 0.2,-0.08 0.34,-0.16 0.41,-0.26 0.07,-0.1 0.1,-0.21 0.1,-0.35 0,-0.13 -0.02,-0.26 -0.07,-0.41 -0.04,-0.15 -0.14,-0.37 -0.3,-0.66 l -1.05,-2.21 h -8.64 l -1.01,2.21 c -0.08,0.15 -0.13,0.32 -0.17,0.52 L 85.28,34 c 0,0.15 0.03,0.27 0.08,0.35 0.05,0.08 0.18,0.17 0.38,0.26 v 0.48 h -4.69 v -0.48 c 0.38,-0.14 0.69,-0.31 0.92,-0.52 0.23,-0.21 0.48,-0.57 0.74,-1.08 z m -0.81,7.8 h 6.48 l -3.32,-7 z"
       id="path10"
       inkscape:connector-curvature="0"
       style="fill:#c42d4a" /><path
       class="st1"
       d="m 104.31,35.09 v -0.48 c 0.34,-0.08 0.59,-0.19 0.73,-0.34 0.11,-0.15 0.17,-0.41 0.17,-0.78 V 16.18 c 0,-0.39 -0.06,-0.66 -0.19,-0.8 -0.1,-0.14 -0.34,-0.27 -0.71,-0.38 v -0.42 h 5.08 V 15 c -0.34,0.09 -0.58,0.21 -0.71,0.37 -0.13,0.16 -0.19,0.43 -0.19,0.81 v 17.31 c 0,0.34 0.06,0.6 0.17,0.78 0.11,0.14 0.36,0.25 0.73,0.34 v 0.48 z"
       id="path12"
       inkscape:connector-curvature="0"
       style="fill:#3f3f3f" /><path
       class="st1"
       d="M 128.39,30.21 V 19.85 c 0,-0.36 -0.05,-0.6 -0.15,-0.74 -0.1,-0.14 -0.35,-0.27 -0.74,-0.38 v -0.48 h 4.14 v 0.48 c -0.36,0.09 -0.6,0.21 -0.72,0.35 -0.12,0.15 -0.18,0.4 -0.18,0.77 v 13.64 c 0,0.34 0.06,0.6 0.17,0.78 0.11,0.14 0.36,0.25 0.73,0.34 v 0.48 h -5.15 v -0.48 c 0.27,-0.08 0.46,-0.17 0.57,-0.29 0.11,-0.11 0.17,-0.26 0.17,-0.44 0,-0.11 -0.02,-0.23 -0.07,-0.33 -0.04,-0.11 -0.1,-0.19 -0.16,-0.26 L 116.12,22.03 v 11.45 c 0,0.34 0.06,0.6 0.17,0.78 0.11,0.14 0.36,0.25 0.73,0.34 v 0.48 h -4.18 V 34.6 c 0.37,-0.08 0.61,-0.19 0.73,-0.34 0.11,-0.15 0.17,-0.41 0.17,-0.78 V 19.85 c 0,-0.36 -0.05,-0.6 -0.15,-0.74 -0.1,-0.14 -0.35,-0.27 -0.74,-0.38 v -0.48 h 6.22 v 0.48 c -0.27,0.08 -0.46,0.17 -0.57,0.29 -0.11,0.11 -0.17,0.27 -0.17,0.46 l 0.06,0.32 0.18,0.27 z"
       id="path14"
       inkscape:connector-curvature="0"
       style="fill:#3f3f3f" /><path
       class="st1"
       d="m 135.72,35.09 v -0.48 c 0.37,-0.08 0.61,-0.19 0.73,-0.34 0.11,-0.15 0.17,-0.41 0.17,-0.78 V 19.85 c 0,-0.36 -0.05,-0.6 -0.15,-0.74 -0.1,-0.14 -0.35,-0.27 -0.74,-0.38 v -0.48 h 8.21 c 3.6,0 6.26,0.68 7.98,2.05 1.72,1.37 2.58,3.49 2.58,6.36 0,2.85 -0.86,4.97 -2.58,6.35 -1.72,1.39 -4.38,2.08 -7.98,2.08 z m 3.99,-14.21 V 32.6 h 4.66 c 2.21,0 3.91,-0.5 5.08,-1.5 1.17,-1 1.76,-2.45 1.76,-4.36 0,-1.92 -0.59,-3.37 -1.76,-4.35 -0.58,-0.5 -1.3,-0.87 -2.14,-1.13 -0.84,-0.25 -1.82,-0.38 -2.94,-0.38 z"
       id="path16"
       inkscape:connector-curvature="0"
       style="fill:#3f3f3f" /><path
       class="st1"
       d="m 156.99,35.09 v -0.48 c 0.37,-0.08 0.61,-0.19 0.73,-0.34 0.11,-0.15 0.17,-0.41 0.17,-0.78 V 19.85 c 0,-0.36 -0.05,-0.6 -0.15,-0.74 -0.1,-0.14 -0.35,-0.27 -0.74,-0.38 v -0.48 h 13.72 c 0.34,0 0.59,-0.06 0.75,-0.18 0.16,-0.12 0.32,-0.37 0.47,-0.75 h 0.42 v 4.39 h -0.42 c -0.11,-0.38 -0.25,-0.63 -0.4,-0.74 -0.15,-0.11 -0.41,-0.17 -0.78,-0.17 h -9.77 v 4.47 h 6.18 c 0.34,0 0.59,-0.06 0.74,-0.17 0.15,-0.11 0.31,-0.36 0.48,-0.73 h 0.42 v 4.33 h -0.42 c -0.13,-0.37 -0.26,-0.61 -0.41,-0.73 -0.15,-0.11 -0.4,-0.17 -0.77,-0.17 h -6.22 v 4.73 h 10.4 c 0.34,0 0.6,-0.06 0.76,-0.18 0.17,-0.12 0.31,-0.36 0.44,-0.74 h 0.44 v 4.37 h -0.42 c -0.11,-0.35 -0.25,-0.58 -0.4,-0.7 -0.15,-0.12 -0.41,-0.18 -0.78,-0.18 h -14.44 z"
       id="path18"
       inkscape:connector-curvature="0"
       style="fill:#3f3f3f" /><path
       class="st1"
       d="m 180.73,33.01 c -0.14,0.18 -0.26,0.38 -0.36,0.59 l -0.13,0.44 c 0,0.09 0.04,0.18 0.11,0.27 0.08,0.09 0.24,0.19 0.48,0.31 v 0.48 h -5.74 v -0.48 c 0.8,-0.34 1.42,-0.79 1.87,-1.35 l 0.04,-0.04 5.3,-6.93 -4.52,-6.16 c -0.13,-0.17 -0.24,-0.3 -0.34,-0.41 -0.1,-0.11 -0.23,-0.23 -0.38,-0.35 -0.23,-0.18 -0.61,-0.39 -1.14,-0.65 v -0.48 h 5.74 v 0.48 c -0.22,0.09 -0.37,0.18 -0.46,0.27 -0.09,0.09 -0.13,0.2 -0.13,0.32 0,0.1 0.04,0.25 0.12,0.44 0.08,0.19 0.21,0.39 0.39,0.61 l 2.62,3.52 2.64,-3.52 0.1,-0.13 c 0.31,-0.43 0.47,-0.74 0.5,-0.92 0,-0.15 -0.05,-0.28 -0.15,-0.38 -0.1,-0.1 -0.27,-0.17 -0.52,-0.21 v -0.48 h 5.74 v 0.48 c -0.44,0.19 -0.86,0.45 -1.24,0.77 -0.38,0.32 -0.84,0.85 -1.37,1.58 l -3.95,5.13 5.07,7.03 c 0.19,0.28 0.41,0.51 0.67,0.71 0.11,0.09 0.28,0.19 0.49,0.31 0.21,0.12 0.46,0.24 0.75,0.37 v 0.48 h -5.74 v -0.48 c 0.23,-0.1 0.38,-0.19 0.45,-0.27 0.07,-0.08 0.12,-0.18 0.14,-0.31 0,-0.11 -0.04,-0.26 -0.12,-0.44 -0.08,-0.18 -0.21,-0.38 -0.37,-0.59 l -3.2,-4.34 z"
       id="path20"
       inkscape:connector-curvature="0"
       style="fill:#3f3f3f" /></g></svg>