<?xml version="1.0" encoding="utf-8"?>
<!-- Generator: Adobe Illustrator 20.1.0, SVG Export Plug-In . SVG Version: 6.00 Build 0)  -->
<svg version="1.1" id="Layer_1" xmlns="http://www.w3.org/2000/svg" xmlns:xlink="http://www.w3.org/1999/xlink" x="0px" y="0px"
	 viewBox="0 0 55.33 20.97" style="enable-background:new 0 0 55.33 20.97;" xml:space="preserve"
	>
<style type="text/css">
	.st0{fill:#FF0000;}
</style>
<g>
	<path class="st0" d="M9.95,1.1H7.29c-2.62,0-4.84,1.99-4.84,5.86c0,2.32,1.08,4.03,2.99,4.88l-3.57,6.47
		c-0.12,0.21,0,0.37,0.19,0.37h1.66c0.14,0,0.23-0.05,0.28-0.16l3.25-6.35h1.17v6.35c0,0.07,0.07,0.16,0.16,0.16h1.45
		c0.14,0,0.19-0.07,0.19-0.19V1.34C10.21,1.17,10.12,1.1,9.95,1.1z M8.41,10.67H7.43c-1.54,0-3.04-1.13-3.04-3.94
		c0-2.93,1.4-4.13,2.83-4.13h1.19V10.67z"/>
	<path d="M18.74,6.93h-1.45c-0.12,0-0.19,0.09-0.19,0.16v4.48h-2.69V7.09c0-0.12-0.05-0.16-0.16-0.16H12.8
		c-0.12,0-0.19,0.07-0.19,0.16v11.39c0,0.12,0.05,0.19,0.16,0.19h1.47c0.09,0,0.16-0.07,0.16-0.19v-5.44h2.69v5.44
		c0,0.12,0.07,0.19,0.19,0.19h1.45c0.12,0,0.16-0.09,0.16-0.19V7.09C18.9,7,18.83,6.93,18.74,6.93z"/>
	<path d="M51.81,17.92l-0.19-0.8c-0.02-0.07-0.05-0.09-0.12-0.09c-0.12,0-0.75,0.26-1.66,0.26c-1.78,0-2.64-1.71-2.64-4.43
		c0-2.39,0.72-4.76,1.94-4.76c0.33,0,0.72,0.09,1.35,0.68c0.07,0.07,0.12,0.09,0.19,0.09c0.07,0,0.14-0.05,0.21-0.16l0.63-1.03
		c0.05-0.07,0.07-0.14,0.07-0.21c0-0.09-0.09-0.16-0.23-0.23c-0.96-0.49-1.61-0.59-2.17-0.59c-2.2,0-3.9,2.62-3.9,6.73
		c0,3.54,1.64,5.58,3.97,5.58c0.98,0,2.03-0.47,2.45-0.77C51.81,18.11,51.84,18.02,51.81,17.92z"/>
	<path d="M41.66,12.23l2.8-5.13c0.05-0.07,0.02-0.16-0.07-0.16h-1.38c-0.4,0-0.54,0.14-0.68,0.44l-2.1,4.38
		c-0.12,0.26-0.23,0.42-0.35,0.49V7.09c0-0.09-0.05-0.16-0.14-0.16h-1.52c-0.07,0-0.14,0.07-0.14,0.16v11.42
		c0,0.07,0.05,0.16,0.14,0.16h1.52c0.09,0,0.14-0.07,0.14-0.16v-5.88c0.07,0.05,0.12,0.12,0.16,0.21l2.66,5.48
		c0.14,0.28,0.35,0.35,0.65,0.35h1.5c0.09,0,0.12-0.09,0.07-0.16L41.66,12.23z"/>
	<path d="M28.27,17.2h-0.28c-0.35,0-0.44-0.14-0.44-0.42V7.09c0-0.12-0.05-0.16-0.14-0.16h-4.67c-0.12,0-0.19,0.07-0.19,0.16v0.84
		c0,2.84-0.16,6.49-1.66,9.26h-0.51c-0.14,0-0.19,0.07-0.19,0.19c0,0,0,2.81,0,3.42c0,0.12,0.09,0.16,0.16,0.16h1.12
		c0.26,0,0.35-0.19,0.35-0.35v-1.95h5v2.13c0,0.09,0.07,0.16,0.16,0.16h1.19c0.14,0,0.28-0.12,0.28-0.35v-3.23
		C28.46,17.27,28.39,17.2,28.27,17.2z M25.75,17.2h-3.39c1.19-2.04,1.66-4.34,1.82-7.15c0.05-0.61,0.07-1.24,0.07-1.64h1.5V17.2z"/>
	<path d="M33.04,6.65c-2.52,0-3.65,3.19-3.65,6.66c0,3.54,1.59,5.65,3.93,5.65c1.14,0,2.15-0.44,2.66-0.77
		c0.09-0.05,0.12-0.12,0.09-0.21l-0.19-0.8c-0.02-0.09-0.07-0.14-0.19-0.14c-0.09,0-0.77,0.26-1.73,0.26c-1.8,0-2.64-1.57-2.64-3.63
		c0-0.28,0-0.55,0-0.55s0.91,0.11,1.45,0.11h3.41v-0.98C36.19,8.6,34.9,6.65,33.04,6.65z M32.78,11.74c-0.54,0-1.38,0.09-1.38,0.09
		s0-0.35,0.05-0.73c0.21-1.99,0.7-3,1.52-3c0.75,0,1.21,1.03,1.33,2.84c0.02,0.37,0.02,0.8,0.02,0.8H32.78z"/>
</g>
</svg>
